<svg width="599" height="336" viewBox="0 0 599 336" fill="none" xmlns="http://www.w3.org/2000/svg">
<g clip-path="url(#clip0)">
<path d="M303 489C426.159 489 526 391.174 526 270.5C526 149.826 426.159 52 303 52C179.84 52 80 149.826 80 270.5C80 391.174 179.84 489 303 489Z" fill="#1391EE"/>
<path d="M526 270.499C526 226.66 512.825 185.838 490.142 151.626C490.142 151.626 477.42 169.835 479.81 181.539C482.2 193.245 496.235 194.139 494.793 202.725C493.352 211.311 482.998 200.268 470.253 222.896C457.508 245.527 463.883 276.75 482.2 279.086C500.515 281.421 526 270.499 526 270.499Z" fill="#48B19B"/>
<path d="M361.563 59.6133C387.52 66.5165 411.594 77.899 432.868 92.8586C432.868 92.8586 407.011 88.6797 397.215 97.2609C387.421 105.845 373.136 126.137 361.563 97.2609C349.991 68.3866 361.563 59.6133 361.563 59.6133Z" fill="#48B19B"/>
<path d="M135.331 126.443C176.201 80.8095 236.165 52 303 52C303 52 287.872 60.9756 316.542 76.1921C345.213 91.4103 332.072 98.432 326.098 103.114C320.126 107.797 309.766 93.7506 303 84.3876C296.232 75.0218 267.17 60.5872 244.868 68.3926C222.568 76.1981 203.458 81.9635 206.64 89.2253C209.823 96.4852 248.052 82.444 262.387 83.2208C276.723 83.9992 271.943 92.5813 258.407 102.727C244.868 112.873 243.273 125.357 257.61 133.16C271.943 140.966 289.462 141.747 293.448 137.066C297.433 132.383 286.28 101.949 313.36 115.214C340.44 128.478 362.74 136.288 340.44 155.794C318.138 175.299 292.655 197.157 291.857 209.637C291.058 222.12 299.823 232.272 295.045 233.049C290.265 233.827 285.879 227.978 282.696 223.684C279.514 219.392 264.777 217.834 257.61 220.562C250.442 223.29 236.9 233.827 244.467 243.971C252.036 254.119 262.382 249.431 272.738 254.114C283.093 258.796 292.749 276.616 290.766 280.644C288.783 284.671 279.957 279.573 272.738 265.82C265.518 252.065 251.975 261.138 242.447 258.796C232.919 256.456 225.751 254.896 216.193 238.507C206.635 222.121 186.848 217.534 178.763 208.075C155.601 180.976 157.258 160.473 152.48 151.109C147.701 141.743 135.331 126.443 135.331 126.443Z" fill="#48B19B"/>
<path d="M324.503 273.623C324.503 273.623 348.396 275.96 360.343 286.107C372.288 296.253 373.885 300.156 392.201 304.057C410.518 307.956 418.483 318.098 406.536 337.61C394.59 357.118 373.083 388.334 362.731 397.699C352.381 407.064 339.638 414.867 334.858 430.474C330.081 446.079 328.485 455.437 338.84 461.685C338.84 461.685 333.268 474.953 320.523 457.785C307.778 440.615 318.133 420.328 320.523 408.622C322.913 396.918 329.283 361.805 325.301 353.217C321.321 344.632 303 339.168 298.221 321.222C293.443 303.277 301.806 268.352 324.503 273.623Z" fill="#48B19B"/>
<path opacity="0.6" d="M145.314 115.999C232.402 30.6674 373.595 30.6691 460.683 115.999C547.771 201.328 547.771 339.673 460.685 425.003C460.685 425.003 561.861 293.911 418.617 153.559C275.372 13.2053 145.314 115.999 145.314 115.999Z" fill="#234864"/>
</g>
<defs>
<clipPath id="clip0">
<rect x="80" y="52" width="446" height="437" fill="white"/>
</clipPath>
</defs>
</svg>
