<svg width="706" height="573" viewBox="0 0 706 573" fill="none" xmlns="http://www.w3.org/2000/svg">
<g clip-path="url(#clip0)">
<path d="M450 512C591.385 512 706 397.385 706 256C706 114.615 591.385 0 450 0C308.615 0 194 114.615 194 256C194 397.385 308.615 512 450 512Z" fill="#2D404E"/>
<path d="M706 256C706 204.637 690.876 156.809 664.835 116.725C664.835 116.725 650.231 138.059 652.975 151.772C655.717 165.487 671.83 166.534 670.175 176.594C668.52 186.654 656.634 173.715 642.003 200.227C627.373 226.741 634.691 263.323 655.717 266.061C676.744 268.797 706 256 706 256Z" fill="#48B19B"/>
<path d="M517.23 8.92C547.027 17.008 574.664 30.344 599.087 47.871C599.087 47.871 569.403 42.975 558.158 53.029C546.914 63.086 530.515 86.861 517.229 53.029C503.945 19.199 517.23 8.92 517.23 8.92Z" fill="#48B19B"/>
<path d="M257.519 87.219C304.437 33.754 373.275 0 450 0C450 0 432.632 10.516 465.546 28.344C498.461 46.174 483.374 54.401 476.517 59.887C469.661 65.373 457.768 48.916 450 37.946C442.231 26.973 408.868 10.061 383.266 19.206C357.665 28.351 335.727 35.106 339.381 43.614C343.034 52.12 386.92 35.669 403.377 36.579C419.834 37.491 414.348 47.546 398.808 59.433C383.266 71.32 381.434 85.947 397.892 95.089C414.348 104.235 434.458 105.15 439.035 99.665C443.609 94.179 430.806 58.522 461.893 74.063C492.98 89.604 518.581 98.754 492.98 121.608C467.378 144.46 438.123 170.069 437.207 184.692C436.291 199.317 446.353 211.212 440.867 212.122C435.381 213.032 430.346 206.181 426.691 201.149C423.038 196.12 406.12 194.294 397.892 197.491C389.663 200.688 374.118 213.032 382.806 224.919C391.495 236.808 403.371 231.315 415.26 236.802C427.147 242.288 438.232 263.167 435.956 267.886C433.68 272.603 423.547 266.63 415.26 250.517C406.971 234.402 391.425 245.031 380.487 242.288C369.548 239.546 361.319 237.718 350.347 218.517C339.375 199.318 316.66 193.945 307.378 182.861C280.789 151.111 282.691 127.09 277.206 116.119C271.72 105.145 257.519 87.219 257.519 87.219Z" fill="#48B19B"/>
<path d="M474.685 259.658C474.685 259.658 502.114 262.396 515.828 274.285C529.542 286.172 531.374 290.746 552.401 295.316C573.428 299.884 582.573 311.767 568.858 334.627C555.144 357.484 530.454 394.057 518.571 405.029C506.689 416.002 492.059 425.144 486.573 443.429C481.088 461.712 479.256 472.677 491.143 479.997C491.143 479.997 484.747 495.542 470.117 475.427C455.486 455.31 467.373 431.542 470.117 417.827C472.859 404.114 480.172 362.975 475.601 352.913C471.033 342.854 450 336.452 444.514 315.427C439.028 294.401 448.629 253.483 474.685 259.658Z" fill="#48B19B"/>
<path opacity="0.6" d="M268.98 74.983C368.955 -24.994 531.042 -24.992 631.018 74.983C730.994 174.956 730.994 337.045 631.019 437.02C631.019 437.02 747.167 283.43 582.726 118.989C418.284 -45.453 268.98 74.983 268.98 74.983Z" fill="#253744"/>
</g>
<g clip-path="url(#clip1)">
<path d="M182.812 327.275C138.857 330.505 98.6356 302.019 87.0813 259.509L43.3265 128.795C43.2776 128.648 43.2337 128.5 43.1926 128.35C37.4896 107.162 49.3814 85.2859 70.2627 78.5475L107.158 66.6407C111.225 65.3292 115.573 67.5605 116.884 71.6213C118.195 75.6823 115.966 80.0363 111.905 81.3474L75.0092 93.2543C62.0459 97.4375 54.6345 110.968 58.059 124.125L101.806 254.821C101.855 254.968 101.9 255.116 101.94 255.265C111.491 290.755 145.025 314.558 181.678 311.865C218.332 309.172 248.028 280.722 252.287 244.218C252.304 244.064 252.327 243.911 252.354 243.759L276.528 108.072C277.992 94.5556 268.683 82.2537 255.247 80.0103L217.008 73.6244C212.799 72.922 209.957 68.9395 210.66 64.7307C211.362 60.5219 215.334 57.6782 219.553 58.3819L257.793 64.7677C279.435 68.3815 294.397 88.2845 291.852 110.079C291.834 110.232 291.813 110.385 291.785 110.538L267.608 246.243C262.391 289.985 226.766 324.046 182.812 327.275Z" fill="#CADDEA"/>
<path d="M88.3064 81.2245C90.6457 93.4519 110.758 99.8793 122.985 97.54C135.213 95.2006 143.229 83.3914 140.89 71.164C138.55 58.9365 126.741 50.9204 114.514 53.2597C102.286 55.5991 85.966 68.9971 88.3064 81.2245Z" fill="#65DB57"/>
<path d="M240.335 70.0533C239.809 82.4913 220.852 91.7895 208.414 91.2626C195.976 90.7357 186.32 80.2251 186.847 67.787C187.373 55.349 197.884 45.6927 210.322 46.2197C222.76 46.7466 240.863 57.6152 240.335 70.0533Z" fill="#65DB57"/>
<path d="M310.357 552.096C241.967 557.121 182.237 505.57 177.212 437.179L169.77 335.816C169.66 334.328 168.492 333.137 167.006 332.999C135.803 330.104 108.189 312.22 92.1987 285.226C89.8328 281.234 89.1265 276.412 91.2458 272.259C93.3933 268.051 97.4692 265.281 102.151 264.848L102.397 264.828C107.496 264.453 112.552 267.152 115.279 271.702C129.134 294.814 154.411 307.947 181.246 305.975C207.879 304.018 231.601 286.749 241.679 261.981C243.561 257.355 248.086 254.122 253.208 253.746C257.959 253.397 262.47 255.495 265.275 259.359C268.047 263.176 268.642 268.047 266.866 272.391C254.994 301.431 229.73 323.201 199.284 330.627L198.801 330.713C197.258 330.986 196.172 332.383 196.287 333.946L203.769 435.21C207.72 488.976 254.659 529.488 308.406 525.539L344.099 522.916C397.931 518.96 438.364 472.114 434.408 418.281L417.581 189.281L444.14 187.329L460.967 416.328C466 484.828 414.549 544.44 346.049 549.473L310.357 552.096Z" fill="#2C5871"/>
<path d="M433.167 241.57C463.879 239.313 486.947 212.587 484.69 181.875C482.433 151.163 455.707 128.095 424.995 130.352C394.283 132.609 371.215 159.335 373.472 190.047C375.729 220.759 402.455 243.827 433.167 241.57Z" fill="#5D6D7D"/>
<path d="M430.141 130.218L438.277 240.945C466.39 236.273 486.813 210.852 484.684 181.872C482.555 152.891 458.635 130.73 430.141 130.218Z" fill="#35495D"/>
<path d="M430.673 207.626C442.638 206.747 451.625 196.334 450.746 184.369C449.866 172.404 439.454 163.417 427.489 164.297C415.524 165.176 406.537 175.588 407.416 187.553C408.296 199.518 418.708 208.505 430.673 207.626Z" fill="#E1EFFB"/>
</g>
<defs>
<clipPath id="clip0">
<rect x="194" width="512" height="512" fill="white"/>
</clipPath>
<clipPath id="clip1">
<rect y="61.5208" width="512" height="512" transform="rotate(-4.20257 0 61.5208)" fill="white"/>
</clipPath>
</defs>
</svg>
