<svg width="1980" height="1080" viewBox="0 0 1980 1080" fill="none" xmlns="http://www.w3.org/2000/svg">
<g clip-path="url(#clip0)">
<rect width="1980" height="1080" fill="#D5F1EF"/>
<path d="M498.8 6.48887e-06L561.15 25.725C623.5 51.45 748.2 102.75 685.85 154.5C623.5 205.725 374.1 257.25 249.4 308.25C124.7 360 124.7 411.75 291.097 462.75C455.934 514.275 791.066 565.5 935.25 617.25C1079.43 668.55 1040.47 720 893.553 771.75C748.2 822.825 498.8 874.5 540.497 925.5C580.634 977.175 915.766 1028.25 1080.6 1054.5L1247 1080L6.26436e-06 1080L5.84255e-06 1054.28C5.42074e-06 1028.55 4.57959e-06 977.25 3.73106e-06 925.5C2.89114e-06 874.275 2.0463e-06 822.75 1.21007e-06 771.75C3.6154e-07 720 -4.8699e-07 668.25 -1.32322e-06 617.25C-2.16806e-06 565.725 -3.00798e-06 514.5 -3.85651e-06 462.75C-4.69767e-06 411.45 -5.54128e-06 360 -6.38981e-06 308.25C-7.22727e-06 257.175 -8.07457e-06 205.5 -8.9108e-06 154.5C-9.7581e-06 102.825 -1.05956e-05 51.75 -1.1026e-05 25.5L-1.14441e-05 1.08148e-05L498.8 6.48887e-06Z" fill="#0099FF"/>
<path d="M498.8 6.48887e-06L561.15 25.725C623.5 51.45 748.2 102.75 685.85 154.5C623.5 205.725 374.1 257.25 249.4 308.25C124.7 360 124.7 411.75 291.097 462.75C455.934 514.275 791.066 565.5 935.25 617.25C1079.43 668.55 1040.47 720 893.553 771.75C748.2 822.825 498.8 874.5 540.497 925.5C580.634 977.175 915.766 1028.25 1080.6 1054.5L1247 1080L6.26436e-06 1080L5.84255e-06 1054.28C5.42074e-06 1028.55 4.57959e-06 977.25 3.73106e-06 925.5C2.89114e-06 874.275 2.0463e-06 822.75 1.21007e-06 771.75C3.6154e-07 720 -4.8699e-07 668.25 -1.32322e-06 617.25C-2.16806e-06 565.725 -3.00798e-06 514.5 -3.85651e-06 462.75C-4.69767e-06 411.45 -5.54128e-06 360 -6.38981e-06 308.25C-7.22727e-06 257.175 -8.07457e-06 205.5 -8.9108e-06 154.5C-9.7581e-06 102.825 -1.05956e-05 51.75 -1.1026e-05 25.5L-1.14441e-05 1.08148e-05L498.8 6.48887e-06Z" fill="url(#paint0_linear)"/>
<path d="M498.8 6.48887e-06L561.15 25.725C623.5 51.45 748.2 102.75 685.85 154.5C623.5 205.725 374.1 257.25 249.4 308.25C124.7 360 124.7 411.75 291.097 462.75C455.934 514.275 791.066 565.5 935.25 617.25C1079.43 668.55 1040.47 720 893.553 771.75C748.2 822.825 498.8 874.5 540.497 925.5C580.634 977.175 915.766 1028.25 1080.6 1054.5L1247 1080L6.26436e-06 1080L5.84255e-06 1054.28C5.42074e-06 1028.55 4.57959e-06 977.25 3.73106e-06 925.5C2.89114e-06 874.275 2.0463e-06 822.75 1.21007e-06 771.75C3.6154e-07 720 -4.8699e-07 668.25 -1.32322e-06 617.25C-2.16806e-06 565.725 -3.00798e-06 514.5 -3.85651e-06 462.75C-4.69767e-06 411.45 -5.54128e-06 360 -6.38981e-06 308.25C-7.22727e-06 257.175 -8.07457e-06 205.5 -8.9108e-06 154.5C-9.7581e-06 102.825 -1.05956e-05 51.75 -1.1026e-05 25.5L-1.14441e-05 1.08148e-05L498.8 6.48887e-06Z" fill="url(#paint1_linear)"/>
<g clip-path="url(#clip1)">
<path d="M806 702C882.215 702 944 640.215 944 564C944 487.785 882.215 426 806 426C729.785 426 668 487.785 668 564C668 640.215 729.785 702 806 702Z" fill="#2D404E"/>
<path d="M944 564C944 536.312 935.847 510.53 921.81 488.922C921.81 488.922 913.937 500.422 915.416 507.815C916.894 515.208 925.58 515.772 924.688 521.195C923.796 526.618 917.389 519.643 909.502 533.935C901.615 548.228 905.56 567.948 916.894 569.423C928.229 570.898 944 564 944 564Z" fill="#48B19B"/>
<path d="M842.241 430.808C858.304 435.168 873.202 442.357 886.367 451.805C886.367 451.805 870.366 449.166 864.304 454.586C858.243 460.007 849.403 472.824 842.241 454.586C835.08 436.349 842.241 430.808 842.241 430.808Z" fill="#48B19B"/>
<path d="M702.241 473.016C727.532 444.196 764.64 426 806 426C806 426 796.638 431.669 814.38 441.279C832.123 450.891 823.991 455.326 820.294 458.283C816.598 461.24 810.187 452.369 806 446.455C801.812 440.54 783.827 431.424 770.026 436.353C756.226 441.283 744.4 444.924 746.369 449.511C748.339 454.096 771.996 445.228 780.867 445.718C789.739 446.21 786.781 451.63 778.404 458.038C770.026 464.446 769.039 472.331 777.911 477.259C786.781 482.189 797.622 482.682 800.089 479.726C802.555 476.768 795.653 457.547 812.411 465.925C829.169 474.302 842.969 479.235 829.169 491.554C815.368 503.873 799.598 517.678 799.104 525.561C798.61 533.444 804.034 539.856 801.077 540.347C798.119 540.838 795.405 537.144 793.435 534.432C791.466 531.721 782.346 530.737 777.911 532.46C773.475 534.183 765.095 540.838 769.778 547.245C774.462 553.654 780.864 550.693 787.273 553.651C793.681 556.608 799.656 567.863 798.429 570.407C797.202 572.95 791.74 569.73 787.273 561.044C782.805 552.357 774.424 558.087 768.528 556.608C762.631 555.13 758.195 554.145 752.281 543.794C746.366 533.445 734.121 530.548 729.118 524.574C714.785 507.458 715.81 494.509 712.853 488.595C709.896 482.68 702.241 473.016 702.241 473.016Z" fill="#48B19B"/>
<path d="M819.307 565.972C819.307 565.972 834.093 567.448 841.485 573.857C848.878 580.265 849.866 582.73 861.201 585.194C872.535 587.656 877.465 594.062 870.072 606.385C862.679 618.706 849.37 638.421 842.964 644.336C836.559 650.251 828.672 655.179 825.715 665.036C822.758 674.892 821.771 680.802 828.179 684.748C828.179 684.748 824.731 693.128 816.844 682.285C808.957 671.441 815.365 658.628 816.844 651.235C818.322 643.843 822.265 621.666 819.801 616.242C817.338 610.82 806 607.369 803.043 596.035C800.085 584.701 805.261 562.643 819.307 565.972Z" fill="#48B19B"/>
<path opacity="0.6" d="M708.419 466.421C762.312 412.527 849.687 412.528 903.58 466.421C957.473 520.312 957.473 607.688 903.581 661.581C903.581 661.581 966.192 578.786 877.548 490.143C788.903 401.498 708.419 466.421 708.419 466.421Z" fill="#253744"/>
</g>
</g>
<defs>
<linearGradient id="paint0_linear" x1="974.879" y1="-56.4" x2="60.4281" y2="621.513" gradientUnits="userSpaceOnUse">
<stop offset="0.150808" stop-color="#93B0DC" stop-opacity="0.528785"/>
<stop offset="0.719726" stop-color="#33B4BC"/>
<stop offset="1" stop-color="white" stop-opacity="0"/>
</linearGradient>
<linearGradient id="paint1_linear" x1="1247" y1="540" x2="8.85422e-06" y2="540" gradientUnits="userSpaceOnUse">
<stop stop-color="white"/>
<stop offset="0.223958" stop-color="white" stop-opacity="0"/>
</linearGradient>
<clipPath id="clip0">
<rect width="1980" height="1080" fill="white"/>
</clipPath>
<clipPath id="clip1">
<rect x="668" y="426" width="276" height="276" fill="white"/>
</clipPath>
</defs>
</svg>

