<svg width="1333" height="1080" viewBox="0 0 1333 1080" fill="none" xmlns="http://www.w3.org/2000/svg">
<path d="M533.2 7.62939e-06L599.85 25.725C666.5 51.45 799.8 102.75 733.15 154.5C666.5 205.725 399.9 257.25 266.6 308.25C133.3 360 133.3 411.75 311.172 462.75C487.378 514.275 845.622 565.5 999.75 617.25C1153.88 668.55 1112.22 720 955.178 771.75C799.8 822.825 533.2 874.5 577.772 925.5C620.678 977.175 978.922 1028.25 1155.13 1054.5L1333 1080H1.77084e-05L1.72866e-05 1054.28C1.68648e-05 1028.55 1.60237e-05 977.25 1.51752e-05 925.5C1.43352e-05 874.275 1.34904e-05 822.75 1.26542e-05 771.75C1.18056e-05 720 1.09571e-05 668.25 1.01209e-05 617.25C9.27603e-06 565.725 8.43611e-06 514.5 7.58758e-06 462.75C6.74643e-06 411.45 5.90282e-06 360 5.05429e-06 308.25C4.21682e-06 257.175 3.36952e-06 205.5 2.53329e-06 154.5C1.68599e-06 102.825 8.4853e-07 51.75 4.18116e-07 25.5L0 1.22536e-05L533.2 7.62939e-06Z" fill="#0099FF"/>
<path d="M533.2 7.62939e-06L599.85 25.725C666.5 51.45 799.8 102.75 733.15 154.5C666.5 205.725 399.9 257.25 266.6 308.25C133.3 360 133.3 411.75 311.172 462.75C487.378 514.275 845.622 565.5 999.75 617.25C1153.88 668.55 1112.22 720 955.178 771.75C799.8 822.825 533.2 874.5 577.772 925.5C620.678 977.175 978.922 1028.25 1155.13 1054.5L1333 1080H1.77084e-05L1.72866e-05 1054.28C1.68648e-05 1028.55 1.60237e-05 977.25 1.51752e-05 925.5C1.43352e-05 874.275 1.34904e-05 822.75 1.26542e-05 771.75C1.18056e-05 720 1.09571e-05 668.25 1.01209e-05 617.25C9.27603e-06 565.725 8.43611e-06 514.5 7.58758e-06 462.75C6.74643e-06 411.45 5.90282e-06 360 5.05429e-06 308.25C4.21682e-06 257.175 3.36952e-06 205.5 2.53329e-06 154.5C1.68599e-06 102.825 8.4853e-07 51.75 4.18116e-07 25.5L0 1.22536e-05L533.2 7.62939e-06Z" fill="url(#paint0_linear)"/>
<path d="M533.2 7.62939e-06L599.85 25.725C666.5 51.45 799.8 102.75 733.15 154.5C666.5 205.725 399.9 257.25 266.6 308.25C133.3 360 133.3 411.75 311.172 462.75C487.378 514.275 845.622 565.5 999.75 617.25C1153.88 668.55 1112.22 720 955.178 771.75C799.8 822.825 533.2 874.5 577.772 925.5C620.678 977.175 978.922 1028.25 1155.13 1054.5L1333 1080H1.77084e-05L1.72866e-05 1054.28C1.68648e-05 1028.55 1.60237e-05 977.25 1.51752e-05 925.5C1.43352e-05 874.275 1.34904e-05 822.75 1.26542e-05 771.75C1.18056e-05 720 1.09571e-05 668.25 1.01209e-05 617.25C9.27603e-06 565.725 8.43611e-06 514.5 7.58758e-06 462.75C6.74643e-06 411.45 5.90282e-06 360 5.05429e-06 308.25C4.21682e-06 257.175 3.36952e-06 205.5 2.53329e-06 154.5C1.68599e-06 102.825 8.4853e-07 51.75 4.18116e-07 25.5L0 1.22536e-05L533.2 7.62939e-06Z" fill="url(#paint1_linear)"/>
<defs>
<linearGradient id="paint0_linear" x1="1042.11" y1="-56.3999" x2="111.681" y2="680.929" gradientUnits="userSpaceOnUse">
<stop offset="0.150808" stop-color="#93B0DC" stop-opacity="0.528785"/>
<stop offset="0.719726" stop-color="#33B4BC"/>
<stop offset="1" stop-color="white" stop-opacity="0"/>
</linearGradient>
<linearGradient id="paint1_linear" x1="1333" y1="540" x2="8.85422e-06" y2="540" gradientUnits="userSpaceOnUse">
<stop stop-color="white"/>
<stop offset="0.223958" stop-color="white" stop-opacity="0"/>
</linearGradient>
</defs>
</svg>
